<svg style="position: absolute; width: 0; height: 0; overflow: hidden;" version="1.1" xmlns="http://www.w3.org/2000/svg" xmlns:xlink="http://www.w3.org/1999/xlink">
    <defs>
        <symbol id="icon-accounts" viewBox="0 0 24 24">
            <title>accounts</title>
            <path class="path1" d="M9 12.984c0.656 0 1.5 0.094 2.391 0.281-2.063 1.125-2.391 2.625-2.391 3.469v2.25h-6.984v-2.484c0-2.344 4.641-3.516 6.984-3.516zM16.5 14.016c1.828 0 5.484 0.891 5.484 2.719v2.25h-10.969v-2.25c0-1.828 3.656-2.719 5.484-2.719zM9 11.016c-1.641 0-3-1.359-3-3s1.359-3 3-3 3 1.359 3 3-1.359 3-3 3zM16.5 12c-1.359 0-2.484-1.125-2.484-2.484s1.125-2.531 2.484-2.531 2.484 1.172 2.484 2.531-1.125 2.484-2.484 2.484z"></path>
        </symbol>
        <symbol id="icon-menu" viewBox="0 0 24 24">
            <title>menu</title>
            <path class="path1" d="M3 6h18v2.016h-18v-2.016zM3 12.984v-1.969h18v1.969h-18zM3 18v-2.016h18v2.016h-18z"></path>
        </symbol>
        <symbol id="icon-add" viewBox="0 0 24 24">
            <title>add</title>
            <path class="path1" d="M18.984 12.984h-6v6h-1.969v-6h-6v-1.969h6v-6h1.969v6h6v1.969z"></path>
        </symbol>
        <symbol id="icon-close" viewBox="0 0 24 24">
            <title>close</title>
            <path class="path1" d="M18.984 6.422l-5.578 5.578 5.578 5.578-1.406 1.406-5.578-5.578-5.578 5.578-1.406-1.406 5.578-5.578-5.578-5.578 1.406-1.406 5.578 5.578 5.578-5.578z"></path>
        </symbol>
        <symbol id="icon-dropdown" viewBox="0 0 24 24">
            <title>dropdown</title>
            <path class="path1" d="M7.406 7.828l4.594 4.594 4.594-4.594 1.406 1.406-6 6-6-6z"></path>
        </symbol>
        <symbol id="icon-arrow-left" viewBox="0 0 24 24">
            <title>arrow-left</title>
            <path class="path1" d="M21 11.016v1.969h-14.156l3.563 3.609-1.406 1.406-6-6 6-6 1.406 1.406-3.563 3.609h14.156z"></path>
        </symbol>
        <symbol id="icon-menu-vert" viewBox="0 0 24 24">
            <title>menu-vert</title>
            <path class="path1" d="M12 15.984c1.078 0 2.016 0.938 2.016 2.016s-0.938 2.016-2.016 2.016-2.016-0.938-2.016-2.016 0.938-2.016 2.016-2.016zM12 9.984c1.078 0 2.016 0.938 2.016 2.016s-0.938 2.016-2.016 2.016-2.016-0.938-2.016-2.016 0.938-2.016 2.016-2.016zM12 8.016c-1.078 0-2.016-0.938-2.016-2.016s0.938-2.016 2.016-2.016 2.016 0.938 2.016 2.016-0.938 2.016-2.016 2.016z"></path>
        </symbol>
        <symbol id="icon-warning" viewBox="0 0 24 24">
            <title>warning</title>
            <path class="path1" d="M12.984 14.016v-4.031h-1.969v4.031h1.969zM12.984 18v-2.016h-1.969v2.016h1.969zM0.984 21l11.016-18.984 11.016 18.984h-22.031z"></path>
        </symbol>
        <symbol id="icon-facebook" viewBox="0 0 8 16">
            <title>facebook</title>
            <path class="path1" d="M5.393 16v-7.298h2.45l0.367-2.844h-2.817v-1.816c0-0.824 0.229-1.385 1.41-1.385l1.506-0.001v-2.544c-0.261-0.035-1.155-0.112-2.195-0.112-2.172 0-3.658 1.325-3.658 3.76v2.098h-2.456v2.844h2.456v7.298h2.937z"></path>
        </symbol>
        <symbol id="icon-twitter" viewBox="0 0 20 16">
            <title>twitter</title>
            <path class="path1" d="M6.191 16c7.429 0 11.492-6.155 11.492-11.492 0-0.175-0.004-0.349-0.012-0.522 0.789-0.57 1.474-1.281 2.015-2.091-0.724 0.321-1.503 0.538-2.32 0.636 0.834-0.5 1.474-1.291 1.776-2.234-0.781 0.463-1.645 0.799-2.565 0.98-0.737-0.785-1.787-1.276-2.948-1.276-2.231 0-4.040 1.809-4.040 4.039 0 0.317 0.036 0.625 0.105 0.921-3.357-0.169-6.334-1.776-8.325-4.22-0.347 0.597-0.547 1.29-0.547 2.030 0 1.401 0.713 2.638 1.797 3.362-0.662-0.020-1.285-0.202-1.829-0.505-0.001 0.017-0.001 0.034-0.001 0.051 0 1.956 1.392 3.59 3.24 3.96-0.339 0.092-0.696 0.142-1.065 0.142-0.26 0-0.513-0.026-0.759-0.073 0.514 1.605 2.005 2.772 3.773 2.805-1.383 1.083-3.124 1.729-5.017 1.729-0.326 0-0.647-0.019-0.964-0.056 1.788 1.146 3.91 1.814 6.191 1.814z"></path>
        </symbol>
        <symbol id="icon-vk" viewBox="0 0 28 16">
            <title>vk</title>
            <path class="path1" d="M13.722 15.933h1.676c0 0 0.506-0.056 0.765-0.334 0.238-0.256 0.23-0.736 0.23-0.736s-0.033-2.249 1.011-2.581c1.029-0.326 2.351 2.174 3.751 3.135 1.059 0.727 1.864 0.568 1.864 0.568l3.745-0.052c0 0 1.959-0.121 1.030-1.661-0.076-0.126-0.541-1.139-2.785-3.222-2.349-2.18-2.034-1.827 0.795-5.598 1.723-2.296 2.411-3.698 2.196-4.298-0.205-0.572-1.472-0.421-1.472-0.421l-4.217 0.026c0 0-0.313-0.043-0.545 0.096-0.227 0.136-0.372 0.452-0.372 0.452s-0.668 1.777-1.558 3.288c-1.878 3.189-2.629 3.357-2.936 3.159-0.714-0.462-0.536-1.854-0.536-2.843 0-3.090 0.469-4.379-0.913-4.712-0.458-0.111-0.796-0.184-1.968-0.196-1.505-0.015-2.778 0.005-3.499 0.358-0.48 0.235-0.85 0.758-0.624 0.788 0.279 0.037 0.91 0.17 1.244 0.626 0.432 0.588 0.417 1.908 0.417 1.908s0.248 3.638-0.58 4.089c-0.568 0.31-1.348-0.323-3.022-3.216-0.858-1.482-1.505-3.12-1.505-3.12s-0.125-0.306-0.348-0.47c-0.27-0.199-0.648-0.261-0.648-0.261l-4.007 0.026c0 0-0.601 0.017-0.822 0.278-0.197 0.233-0.016 0.714-0.016 0.714s3.137 7.34 6.69 11.039c3.258 3.392 6.956 3.169 6.956 3.169v0z"></path>
        </symbol>
    </defs>
</svg>
